<mxfile host="app.diagrams.net" modified="2022-04-28T03:25:20.882Z" agent="5.0 (Windows NT 10.0; Win64; x64) AppleWebKit/537.36 (KHTML, like Gecko) Chrome/100.0.4896.134 Safari/537.36" etag="gxZOMuUtqj03s6cZVZ3_" version="17.4.6" type="github">
  <diagram id="ns0LGziWZuAY21UMhe_E" name="Page-1">
    <mxGraphModel dx="994" dy="1713" grid="1" gridSize="10" guides="1" tooltips="1" connect="1" arrows="1" fold="1" page="1" pageScale="1" pageWidth="827" pageHeight="1169" math="0" shadow="0">
      <root>
        <mxCell id="0" />
        <mxCell id="1" parent="0" />
        <mxCell id="oKsEx5RmJm3Wn2f_pqoI-7" style="rounded=0;orthogonalLoop=1;jettySize=auto;html=1;entryX=0;entryY=0.5;entryDx=0;entryDy=0;" edge="1" parent="1" source="oKsEx5RmJm3Wn2f_pqoI-1" target="oKsEx5RmJm3Wn2f_pqoI-5">
          <mxGeometry relative="1" as="geometry" />
        </mxCell>
        <mxCell id="oKsEx5RmJm3Wn2f_pqoI-9" style="rounded=0;orthogonalLoop=1;jettySize=auto;html=1;entryX=0;entryY=0.5;entryDx=0;entryDy=0;" edge="1" parent="1" source="oKsEx5RmJm3Wn2f_pqoI-1" target="oKsEx5RmJm3Wn2f_pqoI-8">
          <mxGeometry relative="1" as="geometry" />
        </mxCell>
        <mxCell id="oKsEx5RmJm3Wn2f_pqoI-38" value="&amp;lt;&amp;lt;include&amp;gt;&amp;gt;" style="edgeStyle=none;rounded=0;orthogonalLoop=1;jettySize=auto;html=1;entryX=0.037;entryY=0.68;entryDx=0;entryDy=0;entryPerimeter=0;fontFamily=Helvetica;fontSize=12;fontColor=default;endArrow=classicThin;endFill=1;endSize=6;" edge="1" parent="1" source="oKsEx5RmJm3Wn2f_pqoI-1" target="oKsEx5RmJm3Wn2f_pqoI-11">
          <mxGeometry relative="1" as="geometry" />
        </mxCell>
        <mxCell id="oKsEx5RmJm3Wn2f_pqoI-1" value="&lt;p style=&quot;line-height: 1&quot;&gt;Admin&lt;br&gt;&lt;/p&gt;" style="shape=umlActor;verticalLabelPosition=bottom;verticalAlign=top;html=1;outlineConnect=0;" vertex="1" parent="1">
          <mxGeometry x="60" y="-10" width="30" height="60" as="geometry" />
        </mxCell>
        <mxCell id="oKsEx5RmJm3Wn2f_pqoI-10" value="&amp;lt;&amp;lt;include&amp;gt;&amp;gt;" style="edgeStyle=orthogonalEdgeStyle;rounded=0;orthogonalLoop=1;jettySize=auto;html=1;endArrow=open;endFill=0;dashed=1;jumpSize=11;endSize=12;" edge="1" parent="1" source="oKsEx5RmJm3Wn2f_pqoI-5" target="oKsEx5RmJm3Wn2f_pqoI-8">
          <mxGeometry relative="1" as="geometry" />
        </mxCell>
        <mxCell id="oKsEx5RmJm3Wn2f_pqoI-12" value="&amp;lt;&amp;lt;include&amp;gt;&amp;gt;" style="rounded=0;jumpSize=11;orthogonalLoop=1;jettySize=auto;html=1;dashed=1;endArrow=open;endFill=0;endSize=12;" edge="1" parent="1" source="oKsEx5RmJm3Wn2f_pqoI-5" target="oKsEx5RmJm3Wn2f_pqoI-11">
          <mxGeometry relative="1" as="geometry" />
        </mxCell>
        <mxCell id="oKsEx5RmJm3Wn2f_pqoI-16" value="&amp;lt;&amp;lt;include&amp;gt;&amp;gt;" style="rounded=0;jumpSize=11;orthogonalLoop=1;jettySize=auto;html=1;dashed=1;endArrow=open;endFill=0;endSize=12;" edge="1" parent="1" source="oKsEx5RmJm3Wn2f_pqoI-5" target="oKsEx5RmJm3Wn2f_pqoI-15">
          <mxGeometry relative="1" as="geometry" />
        </mxCell>
        <mxCell id="oKsEx5RmJm3Wn2f_pqoI-24" value="&amp;lt;&amp;lt;include&amp;gt;&amp;gt;" style="edgeStyle=none;rounded=0;orthogonalLoop=1;jettySize=auto;html=1;dashed=1;fontFamily=Helvetica;fontSize=12;fontColor=default;endArrow=open;endFill=0;endSize=12;" edge="1" parent="1" source="oKsEx5RmJm3Wn2f_pqoI-5" target="oKsEx5RmJm3Wn2f_pqoI-23">
          <mxGeometry relative="1" as="geometry" />
        </mxCell>
        <mxCell id="oKsEx5RmJm3Wn2f_pqoI-5" value="Đăng nhập" style="ellipse;whiteSpace=wrap;html=1;" vertex="1" parent="1">
          <mxGeometry x="200" y="180" width="120" height="60" as="geometry" />
        </mxCell>
        <mxCell id="oKsEx5RmJm3Wn2f_pqoI-8" value="Đăng xuất" style="ellipse;whiteSpace=wrap;html=1;" vertex="1" parent="1">
          <mxGeometry x="200" y="60" width="120" height="60" as="geometry" />
        </mxCell>
        <mxCell id="oKsEx5RmJm3Wn2f_pqoI-11" value="Quản lý tài khoản" style="ellipse;whiteSpace=wrap;html=1;" vertex="1" parent="1">
          <mxGeometry x="440" y="-20" width="120" height="60" as="geometry" />
        </mxCell>
        <mxCell id="oKsEx5RmJm3Wn2f_pqoI-27" value="" style="edgeStyle=none;rounded=0;orthogonalLoop=1;jettySize=auto;html=1;fontFamily=Helvetica;fontSize=12;fontColor=default;endArrow=classicThin;endFill=1;endSize=6;" edge="1" parent="1" source="oKsEx5RmJm3Wn2f_pqoI-15" target="oKsEx5RmJm3Wn2f_pqoI-26">
          <mxGeometry relative="1" as="geometry" />
        </mxCell>
        <mxCell id="oKsEx5RmJm3Wn2f_pqoI-29" value="" style="edgeStyle=none;rounded=0;orthogonalLoop=1;jettySize=auto;html=1;fontFamily=Helvetica;fontSize=12;fontColor=default;endArrow=classicThin;endFill=1;endSize=6;" edge="1" parent="1" source="oKsEx5RmJm3Wn2f_pqoI-15" target="oKsEx5RmJm3Wn2f_pqoI-28">
          <mxGeometry relative="1" as="geometry" />
        </mxCell>
        <mxCell id="oKsEx5RmJm3Wn2f_pqoI-31" value="" style="edgeStyle=none;rounded=0;orthogonalLoop=1;jettySize=auto;html=1;fontFamily=Helvetica;fontSize=12;fontColor=default;endArrow=classicThin;endFill=1;endSize=6;" edge="1" parent="1" source="oKsEx5RmJm3Wn2f_pqoI-15" target="oKsEx5RmJm3Wn2f_pqoI-30">
          <mxGeometry relative="1" as="geometry" />
        </mxCell>
        <mxCell id="oKsEx5RmJm3Wn2f_pqoI-34" value="" style="edgeStyle=none;rounded=0;orthogonalLoop=1;jettySize=auto;html=1;fontFamily=Helvetica;fontSize=12;fontColor=default;endArrow=classicThin;endFill=1;endSize=6;" edge="1" parent="1" source="oKsEx5RmJm3Wn2f_pqoI-15" target="oKsEx5RmJm3Wn2f_pqoI-33">
          <mxGeometry relative="1" as="geometry" />
        </mxCell>
        <mxCell id="oKsEx5RmJm3Wn2f_pqoI-15" value="Quản lý thông tin người đọc" style="ellipse;whiteSpace=wrap;html=1;" vertex="1" parent="1">
          <mxGeometry x="440" y="160" width="120" height="60" as="geometry" />
        </mxCell>
        <mxCell id="oKsEx5RmJm3Wn2f_pqoI-20" style="rounded=0;orthogonalLoop=1;jettySize=auto;html=1;fontFamily=Helvetica;fontSize=12;fontColor=default;" edge="1" parent="1" source="oKsEx5RmJm3Wn2f_pqoI-17" target="oKsEx5RmJm3Wn2f_pqoI-5">
          <mxGeometry relative="1" as="geometry" />
        </mxCell>
        <mxCell id="oKsEx5RmJm3Wn2f_pqoI-21" value="&amp;lt;&amp;lt;include&amp;gt;&amp;gt;" style="edgeStyle=none;rounded=0;orthogonalLoop=1;jettySize=auto;html=1;fontFamily=Helvetica;fontSize=12;fontColor=default;endSize=12;endArrow=open;endFill=0;dashed=1;" edge="1" parent="1" source="oKsEx5RmJm3Wn2f_pqoI-17" target="oKsEx5RmJm3Wn2f_pqoI-15">
          <mxGeometry relative="1" as="geometry" />
        </mxCell>
        <mxCell id="oKsEx5RmJm3Wn2f_pqoI-22" style="edgeStyle=none;rounded=0;orthogonalLoop=1;jettySize=auto;html=1;entryX=0.08;entryY=0.853;entryDx=0;entryDy=0;entryPerimeter=0;fontFamily=Helvetica;fontSize=12;fontColor=default;" edge="1" parent="1" source="oKsEx5RmJm3Wn2f_pqoI-17" target="oKsEx5RmJm3Wn2f_pqoI-8">
          <mxGeometry relative="1" as="geometry" />
        </mxCell>
        <mxCell id="oKsEx5RmJm3Wn2f_pqoI-25" value="&amp;lt;&amp;lt;include&amp;gt;&amp;gt;" style="edgeStyle=none;rounded=0;orthogonalLoop=1;jettySize=auto;html=1;dashed=1;fontFamily=Helvetica;fontSize=12;fontColor=default;endArrow=open;endFill=0;endSize=12;" edge="1" parent="1" source="oKsEx5RmJm3Wn2f_pqoI-17" target="oKsEx5RmJm3Wn2f_pqoI-23">
          <mxGeometry relative="1" as="geometry" />
        </mxCell>
        <mxCell id="oKsEx5RmJm3Wn2f_pqoI-17" value="Thủ thư" style="shape=umlActor;verticalLabelPosition=bottom;verticalAlign=top;html=1;outlineConnect=0;" vertex="1" parent="1">
          <mxGeometry x="60" y="340" width="30" height="60" as="geometry" />
        </mxCell>
        <mxCell id="oKsEx5RmJm3Wn2f_pqoI-35" style="edgeStyle=none;rounded=0;orthogonalLoop=1;jettySize=auto;html=1;fontFamily=Helvetica;fontSize=12;fontColor=default;endArrow=classicThin;endFill=1;endSize=6;" edge="1" parent="1" source="oKsEx5RmJm3Wn2f_pqoI-23" target="oKsEx5RmJm3Wn2f_pqoI-28">
          <mxGeometry relative="1" as="geometry" />
        </mxCell>
        <mxCell id="oKsEx5RmJm3Wn2f_pqoI-36" style="edgeStyle=none;rounded=0;orthogonalLoop=1;jettySize=auto;html=1;fontFamily=Helvetica;fontSize=12;fontColor=default;endArrow=classicThin;endFill=1;endSize=6;" edge="1" parent="1" source="oKsEx5RmJm3Wn2f_pqoI-23" target="oKsEx5RmJm3Wn2f_pqoI-30">
          <mxGeometry relative="1" as="geometry" />
        </mxCell>
        <mxCell id="oKsEx5RmJm3Wn2f_pqoI-37" style="edgeStyle=none;rounded=0;orthogonalLoop=1;jettySize=auto;html=1;fontFamily=Helvetica;fontSize=12;fontColor=default;endArrow=classicThin;endFill=1;endSize=6;" edge="1" parent="1" source="oKsEx5RmJm3Wn2f_pqoI-23" target="oKsEx5RmJm3Wn2f_pqoI-33">
          <mxGeometry relative="1" as="geometry" />
        </mxCell>
        <mxCell id="oKsEx5RmJm3Wn2f_pqoI-23" value="Quản lý thông tin sách" style="ellipse;whiteSpace=wrap;html=1;" vertex="1" parent="1">
          <mxGeometry x="440" y="260" width="120" height="60" as="geometry" />
        </mxCell>
        <mxCell id="oKsEx5RmJm3Wn2f_pqoI-26" value="Quản lý lịch sử &lt;br&gt;mượn sách" style="ellipse;whiteSpace=wrap;html=1;" vertex="1" parent="1">
          <mxGeometry x="440" y="70" width="120" height="60" as="geometry" />
        </mxCell>
        <mxCell id="oKsEx5RmJm3Wn2f_pqoI-28" value="Thêm" style="ellipse;whiteSpace=wrap;html=1;" vertex="1" parent="1">
          <mxGeometry x="630" width="120" height="60" as="geometry" />
        </mxCell>
        <mxCell id="oKsEx5RmJm3Wn2f_pqoI-30" value="Sửa" style="ellipse;whiteSpace=wrap;html=1;" vertex="1" parent="1">
          <mxGeometry x="630" y="130" width="120" height="60" as="geometry" />
        </mxCell>
        <mxCell id="oKsEx5RmJm3Wn2f_pqoI-33" value="Xóa" style="ellipse;whiteSpace=wrap;html=1;" vertex="1" parent="1">
          <mxGeometry x="630" y="240" width="120" height="60" as="geometry" />
        </mxCell>
      </root>
    </mxGraphModel>
  </diagram>
</mxfile>
